<svg xmlns="http://www.w3.org/2000/svg" viewBox="0 0 512 512">
    <style>
        .icon {
            fill: #e50914;
        }
    </style>

    <path class="icon"
        d="M464 80H48C21.5 80 0 101.5 0 128V384C0 410.5 21.5 432 48 432H464C490.5 432 512 410.5 512 384V128C512 101.5 490.5 80 464 80ZM128 144C145.7 144 160 158.3 160 176C160 193.7 145.7 208 128 208C110.3 208 96 193.7 96 176C96 158.3 110.3 144 128 144ZM128 304C145.7 304 160 318.3 160 336C160 353.7 145.7 368 128 368C110.3 368 96 353.7 96 336C96 318.3 110.3 304 128 304ZM384 368H224V144H384V368ZM416 208C398.3 208 384 193.7 384 176C384 158.3 398.3 144 416 144C433.7 144 448 158.3 448 176C448 193.7 433.7 208 416 208ZM416 368C398.3 368 384 353.7 384 336C384 318.3 398.3 304 416 304C433.7 304 448 318.3 448 336C448 353.7 433.7 368 416 368Z"/>
</svg>